<?xml version="1.0" encoding="UTF-8"?>
<svg id="Layer_2" data-name="Layer 2" xmlns="http://www.w3.org/2000/svg" viewBox="0 0 598.68 592.28">
  <g id="Layer_1-2" data-name="Layer 1">
    <path d="M513.65,378.06c-29.06-25.58-76.06-64.36-125.5-98.97-34.41-24.09-27.07-59.8-22.99-83.07,10.9-52.86,33.37-105.42,71.54-135.23,34.26-26.77,91.83-41.54,105.86-10.39,13.13,29.14-22.2,85.76-44.13,103.75-12.67,10.4-25.15,17.7-40.78,22.65-10.12,3.22-20.75,7.29-26.96,15.9-7.91,10.96-6.56,28.48,3.48,37.75,10.96,10.13,27.75,10.33,40.75,4.26,12.99-6.07,22.88-17.11,32.21-28.01,15.73-18.37,31.02-37.27,43.06-58.24,21.05-36.67,40.29-82.7,18.92-121.73-21.22-34.82-75.07-30.73-108.82-15.33-78.54,35.67-110.52,108.95-131.35,187.22-2.52,9.63-10.42,29.96-14.49,28.67-2.06-.66-7.66,1.18-1.07-51.26,3.28-26.11,17.16-98.56-14.02-98.56s-17.3,72.45-14.02,98.56c6.6,52.45.99,50.61-1.07,51.26-4.08,1.29-11.97-19.03-14.49-28.67C248.94,120.36,216.95,47.07,138.41,11.41,104.66-3.99,50.81-8.09,29.6,26.74c-21.37,39.03-2.13,85.06,18.92,121.73,12.04,20.97,31.64,42.96,50.11,58.56,45.51,38.4,92.76,51.59,113.57,55.06,16.2,2.7,5.31,12.12-1.67,17.01-49.44,34.61-96.44,73.39-125.5,98.97-75.01,66.01-117.82,179.19-53.95,209.35,50.69,23.93,148.81-45.97,190.12-86.68,22.22-21.89,8.94-48.04-4.5-54.01-16.21-7.2-38.63-6.44-53.46,21.35-17.45,32.71-36.31,66.74-66.91,82.97-71.72,38.03-96.88-34.75-11.05-132.68,37.79-43.12,82.44-73.12,135.04-97.26,24.08-11.05,58.5-15.56,65.35,23.96,5.56,32.03-12.79,114.62-15.88,136.34-3.13,22.02-4.48,63.22,29.55,63.22s32.68-41.2,29.55-63.22c-3.09-21.72-21.43-104.31-15.88-136.34,6.85-39.53,41.27-35.01,65.35-23.96,52.6,24.13,97.24,54.13,135.04,97.26,85.83,97.92,60.67,170.7-11.05,132.68-30.61-16.23-49.46-50.26-66.91-82.97-14.83-27.79-37.26-28.55-53.46-21.35-13.44,5.97-26.72,32.11-4.5,54.01,41.31,40.71,139.43,110.62,190.12,86.68,63.88-30.16,21.07-143.34-53.95-209.35ZM95.62,161.72c-20.17-19.95-52.62-82.18-39.5-111.32,14.03-31.15,71.59-16.37,105.86,10.39,38.16,29.81,57.32,83.17,71.54,135.23,15.13,55.41-52.68,50.01-137.9-34.31Z"/>
  </g>
</svg>