<?xml version="1.0" encoding="UTF-8"?>
<svg id="Layer_2" data-name="Layer 2" xmlns="http://www.w3.org/2000/svg" viewBox="0 0 582.68 751.99">
  <g id="Layer_1-2" data-name="Layer 1">
    <g>
      <path d="M20.88,723.99v-99.77h30.8c6.29,0,11.71,1.23,16.24,3.68,4.53,2.46,8,5.88,10.41,10.28,2.41,4.4,3.62,9.5,3.62,15.3s-1.21,10.68-3.62,15.03c-2.41,4.35-5.87,7.75-10.38,10.18-4.51,2.43-9.93,3.65-16.27,3.65h-27.52v-5.76h27.39c5.09,0,9.45-.95,13.09-2.85,3.64-1.9,6.43-4.58,8.37-8.04,1.94-3.46,2.91-7.53,2.91-12.22s-.97-8.92-2.91-12.42c-1.94-3.5-4.73-6.24-8.37-8.2-3.64-1.96-8-2.95-13.09-2.95h-24.51v94.08h-6.16ZM79.4,723.99l-24.37-45.2h6.83l24.51,45.2h-6.96Z"/>
      <path d="M106.92,751.98c-1.52.04-3-.1-4.45-.44s-2.76-.75-3.92-1.24l1.81-5.16.8.27c4.37,1.52,8.12,1.42,11.25-.3,3.12-1.72,5.67-5.3,7.63-10.75l3.42-9.37-27.39-75.87h6.36l23.77,67.23h.54l23.7-67.23h6.43l-31.61,87.59c-1.21,3.39-2.71,6.23-4.52,8.5-1.81,2.28-3.87,3.97-6.19,5.09-2.32,1.12-4.87,1.67-7.63,1.67Z"/>
      <path d="M190.83,725.66c-4.33,0-8.3-.87-11.92-2.61-3.62-1.74-6.51-4.27-8.67-7.6-2.17-3.32-3.25-7.33-3.25-12.02,0-3.12.56-5.88,1.67-8.27,1.11-2.39,2.82-4.44,5.12-6.16,2.3-1.72,5.25-3.13,8.84-4.25,3.59-1.11,7.89-1.99,12.89-2.61,3.84-.45,7.25-.89,10.25-1.34,2.99-.45,5.33-1.15,7.03-2.11,1.7-.96,2.54-2.38,2.54-4.25v-3.08c0-5.45-1.72-9.78-5.16-12.99-3.44-3.21-8.17-4.82-14.2-4.82-5.31,0-9.81,1.17-13.49,3.52-3.68,2.34-6.26,5.37-7.73,9.07l-5.62-2.08c1.47-3.62,3.57-6.6,6.29-8.94,2.72-2.34,5.85-4.1,9.37-5.26,3.53-1.16,7.21-1.74,11.05-1.74,3.35,0,6.54.46,9.58,1.37,3.04.92,5.75,2.34,8.14,4.29,2.39,1.94,4.26,4.4,5.62,7.37,1.36,2.97,2.04,6.51,2.04,10.61v52.23h-5.89v-13.46h-.4c-1.3,2.77-3.08,5.29-5.36,7.57-2.28,2.28-4.99,4.11-8.14,5.49-3.15,1.38-6.69,2.08-10.61,2.08ZM191.36,720.17c4.69,0,8.83-1.16,12.42-3.48,3.59-2.32,6.42-5.48,8.47-9.48,2.05-3.99,3.08-8.51,3.08-13.56v-11.05c-.76.63-1.84,1.2-3.25,1.71-1.41.51-2.99.97-4.75,1.37-1.76.4-3.61.74-5.52,1-1.92.27-3.79.51-5.62.74-5.49.62-9.94,1.62-13.36,2.98-3.42,1.36-5.93,3.12-7.53,5.29-1.61,2.17-2.41,4.81-2.41,7.94,0,5.09,1.77,9.12,5.32,12.09,3.55,2.97,7.94,4.45,13.16,4.45Z"/>
      <path d="M249.69,675.51v48.48h-5.83v-74.86h5.69v11.85h.6c1.79-3.84,4.61-6.93,8.47-9.27,3.86-2.34,8.45-3.52,13.76-3.52s9.48,1.06,13.29,3.18c3.82,2.12,6.8,5.16,8.94,9.11,2.14,3.95,3.21,8.67,3.21,14.16v49.35h-5.83v-49.08c0-6.38-1.91-11.52-5.73-15.4-3.82-3.88-8.83-5.83-15.03-5.83-4.11,0-7.79.92-11.05,2.75-3.26,1.83-5.83,4.38-7.7,7.63-1.87,3.26-2.81,7.08-2.81,11.45Z"/>
      <path d="M386.83,725.66c-6.43,0-12.02-1.09-16.77-3.28-4.75-2.19-8.5-5.22-11.25-9.11s-4.3-8.37-4.65-13.46h6.23c.31,4.11,1.63,7.67,3.95,10.68,2.32,3.01,5.41,5.34,9.27,6.96,3.86,1.63,8.27,2.44,13.23,2.44,5.36,0,10.08-.91,14.16-2.75,4.08-1.83,7.29-4.4,9.61-7.7,2.32-3.3,3.48-7.12,3.48-11.45,0-3.48-.84-6.46-2.51-8.94-1.67-2.48-4.12-4.63-7.33-6.46-3.21-1.83-7.21-3.46-11.99-4.89l-11.58-3.48c-7.86-2.41-13.83-5.66-17.91-9.74s-6.13-9.18-6.13-15.3c0-5.13,1.35-9.69,4.05-13.66,2.7-3.97,6.4-7.09,11.12-9.34,4.71-2.25,10.01-3.38,15.9-3.38s11.17,1.14,15.7,3.42c4.53,2.28,8.14,5.39,10.81,9.34,2.68,3.95,4.15,8.47,4.42,13.56h-5.96c-.54-6.16-3.07-11.15-7.6-14.97-4.53-3.82-10.37-5.73-17.51-5.73-4.82,0-9.13.88-12.92,2.65-3.79,1.76-6.76,4.2-8.91,7.3-2.14,3.1-3.21,6.66-3.21,10.68,0,3.39.87,6.35,2.61,8.87,1.74,2.52,4.16,4.67,7.27,6.43,3.1,1.76,6.64,3.25,10.61,4.45l10.91,3.28c3.71,1.12,7.14,2.42,10.31,3.92,3.17,1.5,5.94,3.27,8.3,5.32,2.37,2.05,4.2,4.45,5.49,7.2,1.29,2.75,1.94,5.93,1.94,9.54,0,5.27-1.35,9.98-4.05,14.13-2.7,4.15-6.53,7.43-11.48,9.84-4.96,2.41-10.83,3.62-17.61,3.62Z"/>
      <path d="M439.86,723.99v-99.77h5.83v99.77h-5.83ZM444.95,694.79l-.13-8.57h1.61l37.43-37.1h7.7l-34.28,34.22-.67.27-11.65,11.18ZM485.46,723.99l-31.54-39.84,4.35-4.02,34.89,43.86h-7.7Z"/>
      <path d="M511.85,751.98c-1.52.04-3-.1-4.45-.44s-2.76-.75-3.92-1.24l1.81-5.16.8.27c4.37,1.52,8.12,1.42,11.25-.3,3.12-1.72,5.67-5.3,7.63-10.75l3.42-9.37-27.39-75.87h6.36l23.77,67.23h.54l23.7-67.23h6.43l-31.61,87.59c-1.21,3.39-2.71,6.23-4.52,8.5-1.81,2.28-3.87,3.97-6.19,5.09-2.32,1.12-4.87,1.67-7.63,1.67Z"/>
    </g>
    <path d="M535.71,576.28c-48.33,0-123.03-52.2-160.63-89.25-9.53-9.39-10.21-18.56-9.11-24.61,1.48-8.14,6.78-14.41,11.25-16.39,4.64-2.06,9.51-3.15,14.07-3.15,11.88,0,21.66,7.05,29.08,20.96,16.26,30.47,36.49,68.38,70.22,86.27,14.02,7.43,26.92,11.2,38.33,11.2,16.09,0,28.36-7.51,34.54-21.14,6.57-14.5,5.56-34.37-2.92-57.48-8.91-24.26-25.9-51.1-49.13-77.6-36.07-41.16-79.83-72.7-137.72-99.25-8.4-3.85-21.2-8.45-34.44-8.45-22.88,0-37.85,13.61-42.13,38.32-4.58,26.44,5.45,81.14,12.09,117.34,1.73,9.44,3.1,16.9,3.75,21.49,3.17,22.29.92,39.76-6.17,47.93-3.6,4.15-8.66,6.17-15.46,6.17s-11.85-2.02-15.46-6.17c-7.09-8.17-9.34-25.64-6.17-47.93.65-4.59,2.02-12.05,3.75-21.49,6.64-36.2,16.67-90.9,12.09-117.34-4.28-24.71-19.25-38.32-42.13-38.32-13.24,0-26.04,4.6-34.44,8.45-57.89,26.56-101.65,58.1-137.72,99.25-23.23,26.51-40.22,53.34-49.13,77.61-8.49,23.11-9.5,42.98-2.92,57.48,6.18,13.63,18.44,21.13,34.54,21.13h0c11.42,0,24.31-3.77,38.33-11.2,33.73-17.89,53.96-55.8,70.22-86.27,7.42-13.91,17.21-20.96,29.08-20.96,4.56,0,9.43,1.09,14.07,3.15,4.47,1.99,9.77,8.25,11.25,16.39,1.1,6.04.41,15.22-9.11,24.61-37.6,37.06-112.3,89.25-160.62,89.25-7.81,0-14.69-1.38-20.46-4.11-14.67-6.92-23.34-19.22-25.79-36.53-3.01-21.34,3.6-49.33,18.63-78.8,15.13-29.67,37.49-58.36,62.97-80.79,18.46-16.25,67.57-58.36,124.8-98.42,6.64-4.65,15.23-11.85,13.23-20.68-1.3-5.72-6.29-9.35-14.84-10.77-13.62-2.27-61.78-12.81-109.73-53.28-19.08-16.11-37.6-37.73-48.34-56.43-12.84-22.37-20.63-40.73-24.5-57.77-4.93-21.69-3.11-40,5.58-55.97C34.93,12.33,48.77,0,78.4,0c16.06,0,33.8,3.89,48.7,10.69,78.69,35.74,108.33,112.06,126.93,182,1.44,5.51,4.2,13.2,6.84,19.08,4.2,9.36,8.36,15.59,15,15.58.87,0,1.74-.12,2.57-.36,11.84-2.81,12.06-18.19,6.81-59.96-.35-2.77-.8-5.93-1.32-9.6-2.99-21.12-9.22-65.06,1.48-77.38,1.57-1.81,3.34-2.58,5.92-2.58s4.35.77,5.92,2.58c10.7,12.32,4.47,56.26,1.48,77.38-.52,3.67-.97,6.83-1.32,9.6-5.26,41.85-5.02,57.21,6.82,59.96.84.24,1.7.36,2.57.36h0c6.64,0,10.8-6.23,15-15.58,2.64-5.89,5.4-13.57,6.85-19.11,12.19-45.82,25.88-79.95,43.07-107.36,21.54-34.36,48.97-58.76,83.85-74.6,14.9-6.8,32.65-10.69,48.71-10.69,29.62,0,43.47,12.33,49.88,22.75,20.22,37.16-1.11,82.7-18.93,113.74-11.84,20.63-27.28,39.59-42.2,57.02-9.5,11.1-18.29,20.72-29.52,25.96-4.64,2.17-9.73,3.31-14.72,3.31s-11.67-1.08-17.21-6.2c-6.92-6.39-8.07-19.35-2.42-27.19,4.91-6.8,14.39-10.25,22.9-12.96,15.86-5.03,29.25-12.46,43.43-24.1,24.41-20.02,61.46-79.7,46.35-113.23-6.45-14.33-20.82-22.22-40.46-22.22-24.13,0-54.6,11.62-77.61,29.6-24.79,19.37-57.83,59.36-74.45,139.92l-.37,2.1c-4.14,23.47-11.07,62.76,26.61,89.14,57.24,40.07,106.35,82.18,124.8,98.42,25.48,22.43,47.85,51.12,62.97,80.79,15.03,29.47,21.64,57.46,18.63,78.8-2.44,17.31-11.12,29.6-25.79,36.53-5.77,2.72-12.65,4.11-20.45,4.11h0ZM81.29,16.89c-19.64,0-34.01,7.89-40.46,22.22-8.6,19.08-.85,46.12,7.17,65.45,8.92,21.5,22.58,43.54,34,54.84,46.15,45.67,91.93,72.93,122.47,72.93,14.07,0,21.53-5.91,25.32-10.87,6.43-8.42,7.59-20.38,3.45-35.55-13.96-51.14-33.71-107.7-74.33-139.43-23.01-17.98-53.48-29.6-77.61-29.6Z"/>
  </g>
</svg>